HIERARCHY
ROOT Hips
{
  OFFSET 10.9364 103.218 144.966
  CHANNELS 6 Xposition Yposition Zposition Zrotation Xrotation Yrotation
  JOINT RightUpLeg
  {
    OFFSET -8.9458 -8.66707 0.101652
    CHANNELS 3 Zrotation Xrotation Yrotation
    JOINT RightLeg
    {
      OFFSET 0 -44.4227 1.3727
      CHANNELS 3 Zrotation Xrotation Yrotation
      JOINT RightFoot
      {
        OFFSET 0.253549 -42.0924 -1.46059
        CHANNELS 3 Zrotation Xrotation Yrotation
        JOINT RightToes
        {
          OFFSET 0.04 -4.41509 8.4991
          CHANNELS 3 Zrotation Xrotation Yrotation
          End Site
          {
            OFFSET -0.08 -0.137448 9.77979
          }
        }
      }
    }
  }
  JOINT Spine
  {
    OFFSET 0 11.8905 0
    CHANNELS 3 Zrotation Xrotation Yrotation
    JOINT Spine1
    {
      OFFSET 0 25.6574 0.127663
      CHANNELS 3 Zrotation Xrotation Yrotation
      JOINT HEad
      {
        OFFSET 0 8.73416 0.011341
        CHANNELS 3 Zrotation Xrotation Yrotation
        End Site
        {
          OFFSET -0.29 12.7742 2.51395
        }
      }
      JOINT LeftShoulder1
      {
        OFFSET 8.99 -0.362252 -0.22
        CHANNELS 3 Zrotation Xrotation Yrotation
        JOINT LeftArm
        {
          OFFSET 10.2827 -0.00338 0.322123
          CHANNELS 3 Zrotation Xrotation Yrotation
          JOINT LeftForeArm
          {
            OFFSET 32.7669 0.099144 -1.42434
            CHANNELS 3 Zrotation Xrotation Yrotation
            JOINT LeftHand
            {
              OFFSET 27.5643 0.085362 1.02216
              CHANNELS 3 Zrotation Xrotation Yrotation
              End Site
              {
                OFFSET 16.7443 -0.6 1.50291
              }
            }
          }
        }
      }
      JOINT RightShoulder
      {
        OFFSET -8.99 -0.362252 -0.22
        CHANNELS 3 Zrotation Xrotation Yrotation
        JOINT RightArm
        {
          OFFSET -10.2827 -0.00338 0.322123
          CHANNELS 3 Zrotation Xrotation Yrotation
          JOINT RightForeArm
          {
            OFFSET -32.8971 0.099144 -1.42434
            CHANNELS 3 Zrotation Xrotation Yrotation
            JOINT RightHand
            {
              OFFSET -27.4921 0.085362 1.02216
              CHANNELS 3 Zrotation Xrotation Yrotation
              End Site
              {
                OFFSET -16.6312 -0.6 1.50291
              }
            }
          }
        }
      }
    }
  }
  JOINT LeftUpLeg
  {
    OFFSET 8.9458 -8.66707 0.101652
    CHANNELS 3 Zrotation Xrotation Yrotation
    JOINT LeftLeg
    {
      OFFSET 0 -44.4227 1.3727
      CHANNELS 3 Zrotation Xrotation Yrotation
      JOINT LeftFoot
      {
        OFFSET -0.253549 -42.0924 -1.46059
        CHANNELS 3 Zrotation Xrotation Yrotation
        JOINT LeftToes
        {
          OFFSET -0.04 -4.41509 8.4991
          CHANNELS 3 Zrotation Xrotation Yrotation
          End Site
          {
            OFFSET 0.08 -0.047448 9.77979
          }
        }
      }
    }
  }
}
MOTION
Frames:	7
Frame Time:	0.0166667
7.93476 102.835 160.273 -0.507539 0.0580367 179.067 4.54277 -19.6657 -0.300414 -4.51003 15.2057 -6.81966 -0.150718 -6.30738 -0.195486 0.0462048 0.000533964 0.662642 -0.591842 2.78407 1.06898 5.12104 -4.4898 0.14726 -1.2874 1.45952 3.95007 1.84516e-015 0 1.86361e-017 -88.2904 -26.2763 -12.9713 -24.1689 15.4653 -18.9894 0.368473 9.90896 -0.00117926 -4.4154 0.269173 2.37065 88.0011 -41.8259 8.16784 17.8797 13.2418 7.31493 -0.369625 9.91382 0.00119886 -4.17976 10.3047 -0.234662 -0.58267 14.8214 38.5899 -19.1698 -4.52807 -0.0769479 -1.093e-011 2.38829e-010 5.8325e-011 
8.31038 102.811 158.386 -0.227993 0.400211 178.92 5.26756 -19.2047 1.55613 -4.24283 17.6352 -8.18908 -0.530461 -8.30711 -0.223894 -0.00850691 -0.708725 0.750918 -0.730973 2.79433 1.16945 5.48497 -4.73506 0.173565 -1.21256 2.22123 4.10886 5.75971e-016 0 1.2424e-017 -87.826 -27.2725 -11.4612 -23.9923 15.4528 -18.9755 0.368473 9.90896 -0.00117926 -4.17421 0.260347 1.94313 87.6779 -41.7945 8.39358 17.8462 13.1258 6.58103 -0.369625 9.91382 0.00119886 -3.20469 10.5456 0.363744 -0.938 17.1143 37.9105 -19.5472 -3.18502 0.156286 3.24659 -1.14077 1.92755 
8.67946 102.798 156.51 0.0181266 0.730291 178.735 5.92815 -18.6344 2.89923 -4.01463 19.771 -9.10915 -0.987139 -10.1873 -0.263231 -0.0442319 -1.4367 0.860645 -0.842706 2.81713 1.26055 5.80297 -4.96582 0.197541 -1.18716 2.82749 4.29777 2.17382e-015 -1.19271e-015 1.86361e-017 -87.2759 -28.3594 -9.8984 -23.8068 15.4384 -18.9626 0.368473 9.90896 -0.00117926 -3.99223 0.251562 1.57683 87.4891 -41.7895 8.64352 17.7721 13.0243 5.95103 -0.369625 9.91382 0.00119886 -2.19106 10.589 0.737599 -1.45919 19.6497 37.5246 -19.848 -1.58083 0.434315 7.16169 -2.63803 4.2705 
9.02564 102.813 154.647 0.17591 1.03665 178.401 6.50982 -17.814 2.67468 -4.27478 21.1955 -8.44074 -1.70587 -11.7803 -0.335397 0.0634581 -2.06176 1.09766 -0.909664 2.87464 1.33811 6.02939 -5.16736 0.217703 -1.30899 2.96126 4.59742 3.47873e-016 3.97569e-016 -4.96962e-017 -86.5745 -29.7551 -8.16824 -23.5855 15.4236 -18.9852 0.368473 9.90896 -0.00117926 -3.96735 0.242383 1.36485 87.6755 -41.879 8.99724 17.5683 12.9614 5.56492 -0.369625 9.91382 0.00119886 -1.05572 10.1621 0.455246 -2.62441 22.7184 38.0872 -19.9813 0.701981 0.839124 13.3215 -5.17869 7.97613 
9.37189 102.848 152.835 0.272431 1.30577 178.106 7.02753 -16.8368 2.06751 -4.68327 22.1415 -7.46376 -2.43531 -13.1105 -0.417079 0.014988 -3.02365 1.23018 -0.874461 2.95059 1.37719 6.11623 -5.32591 0.229073 -1.45742 2.95354 4.88094 -5.59082e-016 0 9.93923e-017 -85.7145 -31.1959 -6.45727 -23.3748 15.3954 -18.9445 0.368473 9.90896 -0.00117926 -4.04209 0.234401 1.27271 88.0571 -41.965 9.31622 17.3597 12.9359 5.41403 -0.369625 9.91382 0.00119886 0.116911 9.29895 -0.0885244 -4.1368 26.1214 38.8348 -19.9308 3.45435 1.31021 20.006 -8.01593 11.9434 
9.75043 102.906 151.119 0.301451 1.51964 178.024 7.43899 -15.7131 2.07036 -4.87132 22.6332 -7.31358 -2.9876 -14.0552 -0.493473 -0.669739 -5.13544 0.92973 -0.609747 3.0456 1.32993 5.93563 -5.42141 0.22223 -1.54368 3.11354 5.03427 -8.94531e-016 0 -2.98177e-016 -84.6633 -32.4795 -4.93735 -23.2317 15.3368 -18.7309 0.368473 9.90896 -0.00117926 -4.2095 0.229279 1.31284 88.5725 -41.967 9.4367 17.2518 12.9607 5.58841 -0.369625 9.91382 0.00119886 1.28553 7.94916 -0.649839 -5.58023 29.852 39.0923 -19.539 7.0486 1.88036 26.7525 -11.3639 16.0589 
10.1172 102.973 149.477 0.29427 1.68085 178.096 7.70385 -14.5435 2.14368 -4.91075 22.8514 -7.45981 -3.34754 -14.888 -0.558735 -1.39758 -7.15687 0.590371 -0.306943 3.13118 1.26083 5.68134 -5.45802 0.209 -1.58301 3.18896 5.10155 1.58407e-015 -7.95139e-016 -9.93923e-017 -83.6154 -33.6588 -3.6198 -23.0957 15.2592 -18.412 0.368473 9.90896 -0.00117926 -4.41594 0.226338 1.43764 89.0941 -41.9064 9.50639 17.2086 13.0131 5.93286 -0.369625 9.91382 0.00119886 2.38014 6.09542 -1.20652 -7.18429 34.0178 39.0145 -19.1245 10.1561 2.36662 30.2769 -13.1923 18.2218 
